<mxfile host="Electron" agent="Mozilla/5.0 (Windows NT 10.0; Win64; x64) AppleWebKit/537.36 (KHTML, like Gecko) draw.io/26.0.4 Chrome/128.0.6613.186 Electron/32.2.5 Safari/537.36" version="26.0.4" pages="2">
  <diagram name="Page-1" id="_hbEaRmbX0SCiGwdWG0w">
    <mxGraphModel dx="1107" dy="767" grid="1" gridSize="10" guides="1" tooltips="1" connect="1" arrows="1" fold="1" page="1" pageScale="1" pageWidth="1654" pageHeight="1169" math="0" shadow="0">
      <root>
        <mxCell id="0" />
        <mxCell id="1" parent="0" />
        <mxCell id="Y7l_8w2L20FjBmuI_hdD-1" value="0" style="strokeWidth=2;html=1;shape=mxgraph.flowchart.start_2;whiteSpace=wrap;fillColor=#dae8fc;strokeColor=#6c8ebf;fontStyle=1" parent="1" vertex="1">
          <mxGeometry x="200" y="40" width="40" height="40" as="geometry" />
        </mxCell>
        <mxCell id="Y7l_8w2L20FjBmuI_hdD-3" value="2" style="strokeWidth=2;html=1;shape=mxgraph.flowchart.start_2;whiteSpace=wrap;fillColor=#d5e8d4;strokeColor=#82b366;fontStyle=1" parent="1" vertex="1">
          <mxGeometry x="320" y="100" width="40" height="40" as="geometry" />
        </mxCell>
        <mxCell id="Y7l_8w2L20FjBmuI_hdD-4" value="5" style="strokeWidth=2;html=1;shape=mxgraph.flowchart.start_2;whiteSpace=wrap;fillColor=#dae8fc;strokeColor=#6c8ebf;fontStyle=1" parent="1" vertex="1">
          <mxGeometry x="400" y="300" width="40" height="40" as="geometry" />
        </mxCell>
        <mxCell id="Y7l_8w2L20FjBmuI_hdD-6" value="1" style="strokeWidth=2;html=1;shape=mxgraph.flowchart.start_2;whiteSpace=wrap;fillColor=#ffe6cc;strokeColor=#d79b00;fontStyle=1" parent="1" vertex="1">
          <mxGeometry x="200" y="160" width="40" height="40" as="geometry" />
        </mxCell>
        <mxCell id="Y7l_8w2L20FjBmuI_hdD-7" value="4" style="strokeWidth=2;html=1;shape=mxgraph.flowchart.start_2;whiteSpace=wrap;fillColor=#ffe6cc;strokeColor=#d79b00;fontStyle=1" parent="1" vertex="1">
          <mxGeometry x="440" y="160" width="40" height="40" as="geometry" />
        </mxCell>
        <mxCell id="Y7l_8w2L20FjBmuI_hdD-8" value="9" style="strokeWidth=2;html=1;shape=mxgraph.flowchart.start_2;whiteSpace=wrap;fillColor=#d5e8d4;strokeColor=#82b366;fontStyle=1" parent="1" vertex="1">
          <mxGeometry x="680" y="200" width="40" height="40" as="geometry" />
        </mxCell>
        <mxCell id="Y7l_8w2L20FjBmuI_hdD-10" value="7" style="strokeWidth=2;html=1;shape=mxgraph.flowchart.start_2;whiteSpace=wrap;fillColor=#dae8fc;strokeColor=#6c8ebf;fontStyle=1" parent="1" vertex="1">
          <mxGeometry x="320" y="200" width="40" height="40" as="geometry" />
        </mxCell>
        <mxCell id="Y7l_8w2L20FjBmuI_hdD-11" value="3" style="strokeWidth=2;html=1;shape=mxgraph.flowchart.start_2;whiteSpace=wrap;fillColor=#dae8fc;strokeColor=#6c8ebf;fontStyle=1" parent="1" vertex="1">
          <mxGeometry x="440" y="40" width="40" height="40" as="geometry" />
        </mxCell>
        <mxCell id="Y7l_8w2L20FjBmuI_hdD-12" value="6" style="strokeWidth=2;html=1;shape=mxgraph.flowchart.start_2;whiteSpace=wrap;fillColor=#d5e8d4;strokeColor=#82b366;fontStyle=1" parent="1" vertex="1">
          <mxGeometry x="240" y="300" width="40" height="40" as="geometry" />
        </mxCell>
        <mxCell id="Y7l_8w2L20FjBmuI_hdD-13" value="8" style="strokeWidth=2;html=1;shape=mxgraph.flowchart.start_2;whiteSpace=wrap;fillColor=#ffe6cc;strokeColor=#d79b00;fontStyle=1" parent="1" vertex="1">
          <mxGeometry x="600" y="100" width="40" height="40" as="geometry" />
        </mxCell>
        <mxCell id="1iif_8I01oJ5J7fmV3TY-1" value="" style="endArrow=classic;html=1;rounded=0;exitX=0.964;exitY=0.689;exitDx=0;exitDy=0;exitPerimeter=0;entryX=0.014;entryY=0.375;entryDx=0;entryDy=0;entryPerimeter=0;" edge="1" parent="1" source="Y7l_8w2L20FjBmuI_hdD-1" target="Y7l_8w2L20FjBmuI_hdD-3">
          <mxGeometry width="50" height="50" relative="1" as="geometry">
            <mxPoint x="240" y="60" as="sourcePoint" />
            <mxPoint x="290" y="10" as="targetPoint" />
          </mxGeometry>
        </mxCell>
        <mxCell id="1iif_8I01oJ5J7fmV3TY-2" value="" style="endArrow=classic;html=1;rounded=0;exitX=0.855;exitY=0.145;exitDx=0;exitDy=0;exitPerimeter=0;entryX=0.145;entryY=0.855;entryDx=0;entryDy=0;entryPerimeter=0;" edge="1" parent="1" source="Y7l_8w2L20FjBmuI_hdD-6" target="Y7l_8w2L20FjBmuI_hdD-3">
          <mxGeometry width="50" height="50" relative="1" as="geometry">
            <mxPoint x="250" y="70" as="sourcePoint" />
            <mxPoint x="329" y="122" as="targetPoint" />
          </mxGeometry>
        </mxCell>
        <mxCell id="1iif_8I01oJ5J7fmV3TY-3" value="" style="endArrow=classic;html=1;rounded=0;entryX=0.5;entryY=1;entryDx=0;entryDy=0;entryPerimeter=0;" edge="1" parent="1" source="Y7l_8w2L20FjBmuI_hdD-10" target="Y7l_8w2L20FjBmuI_hdD-3">
          <mxGeometry width="50" height="50" relative="1" as="geometry">
            <mxPoint x="244" y="176" as="sourcePoint" />
            <mxPoint x="336" y="144" as="targetPoint" />
          </mxGeometry>
        </mxCell>
        <mxCell id="1iif_8I01oJ5J7fmV3TY-4" value="" style="endArrow=classic;html=1;rounded=0;entryX=0.145;entryY=0.855;entryDx=0;entryDy=0;entryPerimeter=0;exitX=0.855;exitY=0.145;exitDx=0;exitDy=0;exitPerimeter=0;" edge="1" parent="1" source="Y7l_8w2L20FjBmuI_hdD-12" target="Y7l_8w2L20FjBmuI_hdD-10">
          <mxGeometry width="50" height="50" relative="1" as="geometry">
            <mxPoint x="350" y="210" as="sourcePoint" />
            <mxPoint x="350" y="150" as="targetPoint" />
          </mxGeometry>
        </mxCell>
        <mxCell id="1iif_8I01oJ5J7fmV3TY-5" value="" style="endArrow=classic;html=1;rounded=0;entryX=0.855;entryY=0.855;entryDx=0;entryDy=0;entryPerimeter=0;exitX=0.145;exitY=0.145;exitDx=0;exitDy=0;exitPerimeter=0;" edge="1" parent="1" source="Y7l_8w2L20FjBmuI_hdD-4" target="Y7l_8w2L20FjBmuI_hdD-10">
          <mxGeometry width="50" height="50" relative="1" as="geometry">
            <mxPoint x="284" y="316" as="sourcePoint" />
            <mxPoint x="336" y="244" as="targetPoint" />
          </mxGeometry>
        </mxCell>
        <mxCell id="1iif_8I01oJ5J7fmV3TY-6" value="" style="endArrow=classic;html=1;rounded=0;entryX=0;entryY=0.5;entryDx=0;entryDy=0;entryPerimeter=0;exitX=0.855;exitY=0.145;exitDx=0;exitDy=0;exitPerimeter=0;" edge="1" parent="1" source="Y7l_8w2L20FjBmuI_hdD-3" target="Y7l_8w2L20FjBmuI_hdD-11">
          <mxGeometry width="50" height="50" relative="1" as="geometry">
            <mxPoint x="350" y="210" as="sourcePoint" />
            <mxPoint x="350" y="150" as="targetPoint" />
          </mxGeometry>
        </mxCell>
        <mxCell id="1iif_8I01oJ5J7fmV3TY-7" value="" style="endArrow=classic;html=1;rounded=0;entryX=0.086;entryY=0.261;entryDx=0;entryDy=0;entryPerimeter=0;exitX=1;exitY=0.5;exitDx=0;exitDy=0;exitPerimeter=0;" edge="1" parent="1" source="Y7l_8w2L20FjBmuI_hdD-3" target="Y7l_8w2L20FjBmuI_hdD-7">
          <mxGeometry width="50" height="50" relative="1" as="geometry">
            <mxPoint x="364" y="116" as="sourcePoint" />
            <mxPoint x="450" y="70" as="targetPoint" />
          </mxGeometry>
        </mxCell>
        <mxCell id="1iif_8I01oJ5J7fmV3TY-8" value="" style="endArrow=classic;html=1;rounded=0;entryX=0.145;entryY=0.145;entryDx=0;entryDy=0;entryPerimeter=0;exitX=1;exitY=0.5;exitDx=0;exitDy=0;exitPerimeter=0;" edge="1" parent="1" source="Y7l_8w2L20FjBmuI_hdD-11" target="Y7l_8w2L20FjBmuI_hdD-13">
          <mxGeometry width="50" height="50" relative="1" as="geometry">
            <mxPoint x="364" y="116" as="sourcePoint" />
            <mxPoint x="450" y="70" as="targetPoint" />
          </mxGeometry>
        </mxCell>
        <mxCell id="1iif_8I01oJ5J7fmV3TY-9" value="" style="endArrow=classic;html=1;rounded=0;entryX=0.145;entryY=0.855;entryDx=0;entryDy=0;entryPerimeter=0;exitX=1;exitY=0.5;exitDx=0;exitDy=0;exitPerimeter=0;" edge="1" parent="1" source="Y7l_8w2L20FjBmuI_hdD-7" target="Y7l_8w2L20FjBmuI_hdD-13">
          <mxGeometry width="50" height="50" relative="1" as="geometry">
            <mxPoint x="490" y="70" as="sourcePoint" />
            <mxPoint x="616" y="116" as="targetPoint" />
          </mxGeometry>
        </mxCell>
        <mxCell id="1iif_8I01oJ5J7fmV3TY-10" value="" style="endArrow=classic;html=1;rounded=0;entryX=0.145;entryY=0.145;entryDx=0;entryDy=0;entryPerimeter=0;exitX=0.855;exitY=0.855;exitDx=0;exitDy=0;exitPerimeter=0;" edge="1" parent="1" source="Y7l_8w2L20FjBmuI_hdD-13" target="Y7l_8w2L20FjBmuI_hdD-8">
          <mxGeometry width="50" height="50" relative="1" as="geometry">
            <mxPoint x="490" y="190" as="sourcePoint" />
            <mxPoint x="616" y="144" as="targetPoint" />
          </mxGeometry>
        </mxCell>
        <mxCell id="1iif_8I01oJ5J7fmV3TY-11" value="" style="endArrow=classic;html=1;rounded=0;entryX=0;entryY=0.5;entryDx=0;entryDy=0;entryPerimeter=0;exitX=1;exitY=0.5;exitDx=0;exitDy=0;exitPerimeter=0;" edge="1" parent="1" source="Y7l_8w2L20FjBmuI_hdD-4" target="Y7l_8w2L20FjBmuI_hdD-8">
          <mxGeometry width="50" height="50" relative="1" as="geometry">
            <mxPoint x="490" y="190" as="sourcePoint" />
            <mxPoint x="616" y="144" as="targetPoint" />
          </mxGeometry>
        </mxCell>
        <mxCell id="1iif_8I01oJ5J7fmV3TY-12" value="Hangfire Agent 01" style="rounded=1;whiteSpace=wrap;html=1;fillColor=#d5e8d4;strokeColor=#82b366;fontStyle=1" vertex="1" parent="1">
          <mxGeometry x="200" y="440" width="120" height="60" as="geometry" />
        </mxCell>
        <mxCell id="1iif_8I01oJ5J7fmV3TY-13" value="Hangfire Agent 02" style="rounded=1;whiteSpace=wrap;html=1;fillColor=#dae8fc;strokeColor=#6c8ebf;fontStyle=1" vertex="1" parent="1">
          <mxGeometry x="400" y="440" width="120" height="60" as="geometry" />
        </mxCell>
        <mxCell id="1iif_8I01oJ5J7fmV3TY-14" value="Hangfire Agent 03" style="rounded=1;whiteSpace=wrap;html=1;fillColor=#ffe6cc;strokeColor=#d79b00;fontStyle=1" vertex="1" parent="1">
          <mxGeometry x="600" y="440" width="120" height="60" as="geometry" />
        </mxCell>
      </root>
    </mxGraphModel>
  </diagram>
  <diagram id="LxGoi4u_aZcrAGbondVB" name="Page-2">
    <mxGraphModel dx="1107" dy="767" grid="1" gridSize="10" guides="1" tooltips="1" connect="1" arrows="1" fold="1" page="1" pageScale="1" pageWidth="1654" pageHeight="1169" math="0" shadow="0">
      <root>
        <mxCell id="0" />
        <mxCell id="1" parent="0" />
        <mxCell id="D9Z2wX8GmxAhrMVsmzYS-23" value="" style="rounded=1;whiteSpace=wrap;html=1;dashed=1;shadow=1;fillColor=#fff2cc;strokeColor=#d6b656;" vertex="1" parent="1">
          <mxGeometry x="490" y="180" width="190" height="480" as="geometry" />
        </mxCell>
        <mxCell id="D9Z2wX8GmxAhrMVsmzYS-48" value="" style="rounded=1;whiteSpace=wrap;html=1;fillColor=#e1d5e7;strokeColor=#9673a6;dashed=1;shadow=1;" vertex="1" parent="1">
          <mxGeometry x="190" y="200" width="470" height="110" as="geometry" />
        </mxCell>
        <mxCell id="D9Z2wX8GmxAhrMVsmzYS-44" value="" style="endArrow=classic;html=1;rounded=0;entryX=1;entryY=0;entryDx=0;entryDy=15;exitX=0.25;exitY=1;exitDx=0;exitDy=0;dashed=1;entryPerimeter=0;" edge="1" parent="1" source="Vy1e10dYT5zq_7maPLow-3" target="D9Z2wX8GmxAhrMVsmzYS-29">
          <mxGeometry width="50" height="50" relative="1" as="geometry">
            <mxPoint x="530" y="440" as="sourcePoint" />
            <mxPoint x="330" y="688" as="targetPoint" />
          </mxGeometry>
        </mxCell>
        <mxCell id="D9Z2wX8GmxAhrMVsmzYS-45" value="DB Access" style="edgeLabel;html=1;align=center;verticalAlign=middle;resizable=0;points=[];" vertex="1" connectable="0" parent="D9Z2wX8GmxAhrMVsmzYS-44">
          <mxGeometry x="0.4818" relative="1" as="geometry">
            <mxPoint x="-12" y="14" as="offset" />
          </mxGeometry>
        </mxCell>
        <mxCell id="D9Z2wX8GmxAhrMVsmzYS-43" value="" style="rounded=1;whiteSpace=wrap;html=1;fillColor=#d5e8d4;strokeColor=#82b366;dashed=1;shadow=1;" vertex="1" parent="1">
          <mxGeometry x="500" y="460" width="450" height="100" as="geometry" />
        </mxCell>
        <mxCell id="D9Z2wX8GmxAhrMVsmzYS-39" value="" style="rounded=1;whiteSpace=wrap;html=1;fillColor=#dae8fc;strokeColor=#6c8ebf;dashed=1;shadow=1;" vertex="1" parent="1">
          <mxGeometry x="500" y="350" width="450" height="100" as="geometry" />
        </mxCell>
        <mxCell id="D9Z2wX8GmxAhrMVsmzYS-21" value="" style="endArrow=classic;html=1;rounded=0;exitX=0.5;exitY=1;exitDx=0;exitDy=0;entryX=0.855;entryY=1;entryDx=0;entryDy=-4.35;entryPerimeter=0;" edge="1" parent="1" source="Vy1e10dYT5zq_7maPLow-4" target="Vy1e10dYT5zq_7maPLow-2">
          <mxGeometry width="50" height="50" relative="1" as="geometry">
            <mxPoint x="620" y="540" as="sourcePoint" />
            <mxPoint x="1100" y="450" as="targetPoint" />
            <Array as="points">
              <mxPoint x="580" y="600" />
              <mxPoint x="1110" y="600" />
            </Array>
          </mxGeometry>
        </mxCell>
        <mxCell id="D9Z2wX8GmxAhrMVsmzYS-22" value="HF Client: Enqueue Job" style="edgeLabel;html=1;align=center;verticalAlign=middle;resizable=0;points=[];" vertex="1" connectable="0" parent="D9Z2wX8GmxAhrMVsmzYS-21">
          <mxGeometry x="-0.1378" y="2" relative="1" as="geometry">
            <mxPoint as="offset" />
          </mxGeometry>
        </mxCell>
        <mxCell id="D9Z2wX8GmxAhrMVsmzYS-30" value="" style="endArrow=classic;html=1;rounded=0;entryX=1;entryY=0.25;entryDx=0;entryDy=0;exitX=0;exitY=0.75;exitDx=0;exitDy=0;dashed=1;" edge="1" parent="1" source="Vy1e10dYT5zq_7maPLow-4" target="D9Z2wX8GmxAhrMVsmzYS-28">
          <mxGeometry width="50" height="50" relative="1" as="geometry">
            <mxPoint x="450" y="460" as="sourcePoint" />
            <mxPoint x="500" y="410" as="targetPoint" />
          </mxGeometry>
        </mxCell>
        <mxCell id="D9Z2wX8GmxAhrMVsmzYS-31" value="Web API Call" style="edgeLabel;html=1;align=center;verticalAlign=middle;resizable=0;points=[];" vertex="1" connectable="0" parent="D9Z2wX8GmxAhrMVsmzYS-30">
          <mxGeometry x="0.4818" relative="1" as="geometry">
            <mxPoint as="offset" />
          </mxGeometry>
        </mxCell>
        <mxCell id="Vy1e10dYT5zq_7maPLow-1" value="Calc Engine DB" style="shape=cylinder3;whiteSpace=wrap;html=1;boundedLbl=1;backgroundOutline=1;size=15;" parent="1" vertex="1">
          <mxGeometry x="230" y="360" width="80" height="80" as="geometry" />
        </mxCell>
        <mxCell id="Vy1e10dYT5zq_7maPLow-2" value="Hangfire&lt;div&gt;DB&lt;/div&gt;" style="shape=cylinder3;whiteSpace=wrap;html=1;boundedLbl=1;backgroundOutline=1;size=15;" parent="1" vertex="1">
          <mxGeometry x="1040" y="360" width="80" height="80" as="geometry" />
        </mxCell>
        <mxCell id="Vy1e10dYT5zq_7maPLow-3" value="Mediatr Handlers&lt;div&gt;(Web API Requests)&lt;/div&gt;" style="rounded=0;whiteSpace=wrap;html=1;" parent="1" vertex="1">
          <mxGeometry x="520" y="220" width="120" height="60" as="geometry" />
        </mxCell>
        <mxCell id="Vy1e10dYT5zq_7maPLow-4" value="Mediatr Handlers&lt;div&gt;(Calculation Units)&lt;/div&gt;" style="rounded=0;whiteSpace=wrap;html=1;" parent="1" vertex="1">
          <mxGeometry x="520" y="370" width="120" height="60" as="geometry" />
        </mxCell>
        <mxCell id="Vy1e10dYT5zq_7maPLow-5" value="Mediatr Handlers&lt;div&gt;(Calculation Units)&lt;/div&gt;" style="rounded=0;whiteSpace=wrap;html=1;" parent="1" vertex="1">
          <mxGeometry x="520" y="470" width="120" height="60" as="geometry" />
        </mxCell>
        <mxCell id="Vy1e10dYT5zq_7maPLow-6" value="Web API&lt;div&gt;Controllers&lt;/div&gt;" style="rounded=0;whiteSpace=wrap;html=1;" parent="1" vertex="1">
          <mxGeometry x="210" y="220" width="120" height="60" as="geometry" />
        </mxCell>
        <mxCell id="Vy1e10dYT5zq_7maPLow-7" value="Hangfire Server Background Service" style="rounded=0;whiteSpace=wrap;html=1;" parent="1" vertex="1">
          <mxGeometry x="800" y="370" width="120" height="60" as="geometry" />
        </mxCell>
        <mxCell id="Vy1e10dYT5zq_7maPLow-8" value="Hangfire Server Background Service" style="rounded=0;whiteSpace=wrap;html=1;" parent="1" vertex="1">
          <mxGeometry x="800" y="470" width="120" height="60" as="geometry" />
        </mxCell>
        <mxCell id="D9Z2wX8GmxAhrMVsmzYS-1" value="" style="endArrow=classic;html=1;rounded=0;exitX=1;exitY=0.5;exitDx=0;exitDy=0;entryX=0;entryY=0.5;entryDx=0;entryDy=0;" edge="1" parent="1" source="Vy1e10dYT5zq_7maPLow-6" target="Vy1e10dYT5zq_7maPLow-3">
          <mxGeometry width="50" height="50" relative="1" as="geometry">
            <mxPoint x="600" y="340" as="sourcePoint" />
            <mxPoint x="650" y="290" as="targetPoint" />
          </mxGeometry>
        </mxCell>
        <mxCell id="D9Z2wX8GmxAhrMVsmzYS-2" value="EnqueueReport&lt;div&gt;GetReportStatus&lt;/div&gt;&lt;div&gt;GetReportResults&lt;/div&gt;" style="edgeLabel;html=1;align=center;verticalAlign=middle;resizable=0;points=[];" vertex="1" connectable="0" parent="D9Z2wX8GmxAhrMVsmzYS-1">
          <mxGeometry x="0.026" y="1" relative="1" as="geometry">
            <mxPoint as="offset" />
          </mxGeometry>
        </mxCell>
        <mxCell id="D9Z2wX8GmxAhrMVsmzYS-3" value="" style="endArrow=classic;html=1;rounded=0;exitX=0;exitY=0.75;exitDx=0;exitDy=0;entryX=1;entryY=0;entryDx=0;entryDy=15;entryPerimeter=0;" edge="1" parent="1" source="Vy1e10dYT5zq_7maPLow-3" target="Vy1e10dYT5zq_7maPLow-1">
          <mxGeometry width="50" height="50" relative="1" as="geometry">
            <mxPoint x="530" y="300" as="sourcePoint" />
            <mxPoint x="650" y="290" as="targetPoint" />
          </mxGeometry>
        </mxCell>
        <mxCell id="D9Z2wX8GmxAhrMVsmzYS-4" value="SaveCalculationGraph&lt;div&gt;GetCalculationResults&lt;/div&gt;" style="edgeLabel;html=1;align=center;verticalAlign=middle;resizable=0;points=[];" vertex="1" connectable="0" parent="D9Z2wX8GmxAhrMVsmzYS-3">
          <mxGeometry x="0.1213" y="-1" relative="1" as="geometry">
            <mxPoint x="-17" y="14" as="offset" />
          </mxGeometry>
        </mxCell>
        <mxCell id="D9Z2wX8GmxAhrMVsmzYS-5" value="" style="endArrow=classic;html=1;rounded=0;exitX=1;exitY=0.5;exitDx=0;exitDy=0;entryX=0;entryY=0;entryDx=0;entryDy=15;entryPerimeter=0;" edge="1" parent="1" source="Vy1e10dYT5zq_7maPLow-3" target="Vy1e10dYT5zq_7maPLow-2">
          <mxGeometry width="50" height="50" relative="1" as="geometry">
            <mxPoint x="600" y="340" as="sourcePoint" />
            <mxPoint x="650" y="290" as="targetPoint" />
          </mxGeometry>
        </mxCell>
        <mxCell id="D9Z2wX8GmxAhrMVsmzYS-6" value="HF Client: Enqueue Job (CalculationGraph)" style="edgeLabel;html=1;align=center;verticalAlign=middle;resizable=0;points=[];" vertex="1" connectable="0" parent="D9Z2wX8GmxAhrMVsmzYS-5">
          <mxGeometry x="-0.0919" relative="1" as="geometry">
            <mxPoint as="offset" />
          </mxGeometry>
        </mxCell>
        <mxCell id="D9Z2wX8GmxAhrMVsmzYS-7" value="" style="endArrow=classic;html=1;rounded=0;exitX=0;exitY=0.5;exitDx=0;exitDy=0;entryX=1;entryY=0.5;entryDx=0;entryDy=0;entryPerimeter=0;" edge="1" parent="1" source="Vy1e10dYT5zq_7maPLow-4" target="Vy1e10dYT5zq_7maPLow-1">
          <mxGeometry width="50" height="50" relative="1" as="geometry">
            <mxPoint x="600" y="340" as="sourcePoint" />
            <mxPoint x="650" y="290" as="targetPoint" />
          </mxGeometry>
        </mxCell>
        <mxCell id="D9Z2wX8GmxAhrMVsmzYS-8" value="Calculation Graph CRUD" style="edgeLabel;html=1;align=center;verticalAlign=middle;resizable=0;points=[];" vertex="1" connectable="0" parent="D9Z2wX8GmxAhrMVsmzYS-7">
          <mxGeometry x="0.1134" relative="1" as="geometry">
            <mxPoint x="-4" as="offset" />
          </mxGeometry>
        </mxCell>
        <mxCell id="D9Z2wX8GmxAhrMVsmzYS-9" value="" style="endArrow=classic;html=1;rounded=0;exitX=0;exitY=0.5;exitDx=0;exitDy=0;entryX=1;entryY=0;entryDx=0;entryDy=52.5;entryPerimeter=0;" edge="1" parent="1" source="Vy1e10dYT5zq_7maPLow-5" target="Vy1e10dYT5zq_7maPLow-1">
          <mxGeometry width="50" height="50" relative="1" as="geometry">
            <mxPoint x="530" y="400" as="sourcePoint" />
            <mxPoint x="320" y="410" as="targetPoint" />
          </mxGeometry>
        </mxCell>
        <mxCell id="D9Z2wX8GmxAhrMVsmzYS-10" value="Calculation Graph CRUD" style="edgeLabel;html=1;align=center;verticalAlign=middle;resizable=0;points=[];" vertex="1" connectable="0" parent="D9Z2wX8GmxAhrMVsmzYS-9">
          <mxGeometry x="0.1134" relative="1" as="geometry">
            <mxPoint x="-23" y="-11" as="offset" />
          </mxGeometry>
        </mxCell>
        <mxCell id="D9Z2wX8GmxAhrMVsmzYS-11" value="" style="endArrow=classic;html=1;rounded=0;entryX=0;entryY=0.5;entryDx=0;entryDy=0;entryPerimeter=0;exitX=1;exitY=0.5;exitDx=0;exitDy=0;" edge="1" parent="1" source="Vy1e10dYT5zq_7maPLow-7" target="Vy1e10dYT5zq_7maPLow-2">
          <mxGeometry width="50" height="50" relative="1" as="geometry">
            <mxPoint x="600" y="340" as="sourcePoint" />
            <mxPoint x="650" y="290" as="targetPoint" />
          </mxGeometry>
        </mxCell>
        <mxCell id="D9Z2wX8GmxAhrMVsmzYS-12" value="Load Job" style="edgeLabel;html=1;align=center;verticalAlign=middle;resizable=0;points=[];" vertex="1" connectable="0" parent="D9Z2wX8GmxAhrMVsmzYS-11">
          <mxGeometry x="0.0007" y="-1" relative="1" as="geometry">
            <mxPoint x="1" as="offset" />
          </mxGeometry>
        </mxCell>
        <mxCell id="D9Z2wX8GmxAhrMVsmzYS-13" value="" style="endArrow=classic;html=1;rounded=0;exitX=1;exitY=0.5;exitDx=0;exitDy=0;entryX=0;entryY=1;entryDx=0;entryDy=-15;entryPerimeter=0;" edge="1" parent="1" source="Vy1e10dYT5zq_7maPLow-8" target="Vy1e10dYT5zq_7maPLow-2">
          <mxGeometry width="50" height="50" relative="1" as="geometry">
            <mxPoint x="850" y="400" as="sourcePoint" />
            <mxPoint x="970" y="400" as="targetPoint" />
          </mxGeometry>
        </mxCell>
        <mxCell id="D9Z2wX8GmxAhrMVsmzYS-14" value="Load Job" style="edgeLabel;html=1;align=center;verticalAlign=middle;resizable=0;points=[];" vertex="1" connectable="0" parent="D9Z2wX8GmxAhrMVsmzYS-13">
          <mxGeometry x="0.0007" y="-1" relative="1" as="geometry">
            <mxPoint x="1" as="offset" />
          </mxGeometry>
        </mxCell>
        <mxCell id="D9Z2wX8GmxAhrMVsmzYS-15" value="" style="endArrow=classic;html=1;rounded=0;exitX=0;exitY=0.5;exitDx=0;exitDy=0;entryX=1;entryY=0.5;entryDx=0;entryDy=0;" edge="1" parent="1" source="Vy1e10dYT5zq_7maPLow-7" target="Vy1e10dYT5zq_7maPLow-4">
          <mxGeometry width="50" height="50" relative="1" as="geometry">
            <mxPoint x="600" y="340" as="sourcePoint" />
            <mxPoint x="650" y="290" as="targetPoint" />
          </mxGeometry>
        </mxCell>
        <mxCell id="D9Z2wX8GmxAhrMVsmzYS-16" value="Mediatr.Send(Request)" style="edgeLabel;html=1;align=center;verticalAlign=middle;resizable=0;points=[];" vertex="1" connectable="0" parent="D9Z2wX8GmxAhrMVsmzYS-15">
          <mxGeometry x="0.0941" y="-1" relative="1" as="geometry">
            <mxPoint x="7" y="1" as="offset" />
          </mxGeometry>
        </mxCell>
        <mxCell id="D9Z2wX8GmxAhrMVsmzYS-17" value="" style="endArrow=classic;html=1;rounded=0;exitX=0;exitY=0.5;exitDx=0;exitDy=0;entryX=1;entryY=0.5;entryDx=0;entryDy=0;" edge="1" parent="1" source="Vy1e10dYT5zq_7maPLow-8" target="Vy1e10dYT5zq_7maPLow-5">
          <mxGeometry width="50" height="50" relative="1" as="geometry">
            <mxPoint x="810" y="410" as="sourcePoint" />
            <mxPoint x="650" y="410" as="targetPoint" />
          </mxGeometry>
        </mxCell>
        <mxCell id="D9Z2wX8GmxAhrMVsmzYS-18" value="Mediatr.Send(Request)" style="edgeLabel;html=1;align=center;verticalAlign=middle;resizable=0;points=[];" vertex="1" connectable="0" parent="D9Z2wX8GmxAhrMVsmzYS-17">
          <mxGeometry x="0.0941" y="-1" relative="1" as="geometry">
            <mxPoint x="7" y="1" as="offset" />
          </mxGeometry>
        </mxCell>
        <mxCell id="D9Z2wX8GmxAhrMVsmzYS-19" value="" style="endArrow=classic;html=1;rounded=0;exitX=0.75;exitY=1;exitDx=0;exitDy=0;" edge="1" parent="1" source="Vy1e10dYT5zq_7maPLow-5">
          <mxGeometry width="50" height="50" relative="1" as="geometry">
            <mxPoint x="580" y="540" as="sourcePoint" />
            <mxPoint x="1080" y="440" as="targetPoint" />
            <Array as="points">
              <mxPoint x="610" y="580" />
              <mxPoint x="1080" y="580" />
            </Array>
          </mxGeometry>
        </mxCell>
        <mxCell id="D9Z2wX8GmxAhrMVsmzYS-20" value="HF Client: Enqueue Job" style="edgeLabel;html=1;align=center;verticalAlign=middle;resizable=0;points=[];" vertex="1" connectable="0" parent="D9Z2wX8GmxAhrMVsmzYS-19">
          <mxGeometry x="-0.1378" y="2" relative="1" as="geometry">
            <mxPoint x="75" y="2" as="offset" />
          </mxGeometry>
        </mxCell>
        <mxCell id="D9Z2wX8GmxAhrMVsmzYS-24" value="&lt;b&gt;Application Business Logic&lt;/b&gt;" style="text;html=1;align=center;verticalAlign=middle;whiteSpace=wrap;rounded=0;" vertex="1" parent="1">
          <mxGeometry x="510" y="610" width="150" height="30" as="geometry" />
        </mxCell>
        <mxCell id="D9Z2wX8GmxAhrMVsmzYS-25" value="External API" style="rounded=0;whiteSpace=wrap;html=1;dashed=1;dashPattern=12 12;" vertex="1" parent="1">
          <mxGeometry x="130" y="490" width="120" height="60" as="geometry" />
        </mxCell>
        <mxCell id="D9Z2wX8GmxAhrMVsmzYS-26" value="External API" style="rounded=0;whiteSpace=wrap;html=1;dashed=1;dashPattern=12 12;" vertex="1" parent="1">
          <mxGeometry x="140" y="500" width="120" height="60" as="geometry" />
        </mxCell>
        <mxCell id="D9Z2wX8GmxAhrMVsmzYS-27" value="External API" style="rounded=0;whiteSpace=wrap;html=1;dashed=1;dashPattern=12 12;" vertex="1" parent="1">
          <mxGeometry x="150" y="510" width="120" height="60" as="geometry" />
        </mxCell>
        <mxCell id="D9Z2wX8GmxAhrMVsmzYS-28" value="External&amp;nbsp;&lt;div&gt;Serices API&lt;/div&gt;" style="rounded=0;whiteSpace=wrap;html=1;dashed=1;dashPattern=12 12;" vertex="1" parent="1">
          <mxGeometry x="160" y="520" width="120" height="60" as="geometry" />
        </mxCell>
        <mxCell id="D9Z2wX8GmxAhrMVsmzYS-29" value="Application DB" style="shape=cylinder3;whiteSpace=wrap;html=1;boundedLbl=1;backgroundOutline=1;size=15;dashed=1;dashPattern=12 12;" vertex="1" parent="1">
          <mxGeometry x="230" y="630" width="80" height="80" as="geometry" />
        </mxCell>
        <mxCell id="D9Z2wX8GmxAhrMVsmzYS-32" value="" style="endArrow=classic;html=1;rounded=0;entryX=1;entryY=0.5;entryDx=0;entryDy=0;exitX=0;exitY=0.75;exitDx=0;exitDy=0;dashed=1;" edge="1" parent="1" source="Vy1e10dYT5zq_7maPLow-5" target="D9Z2wX8GmxAhrMVsmzYS-28">
          <mxGeometry width="50" height="50" relative="1" as="geometry">
            <mxPoint x="530" y="425" as="sourcePoint" />
            <mxPoint x="360" y="565" as="targetPoint" />
          </mxGeometry>
        </mxCell>
        <mxCell id="D9Z2wX8GmxAhrMVsmzYS-33" value="Web API Call" style="edgeLabel;html=1;align=center;verticalAlign=middle;resizable=0;points=[];" vertex="1" connectable="0" parent="D9Z2wX8GmxAhrMVsmzYS-32">
          <mxGeometry x="0.4818" relative="1" as="geometry">
            <mxPoint x="-2" y="-1" as="offset" />
          </mxGeometry>
        </mxCell>
        <mxCell id="D9Z2wX8GmxAhrMVsmzYS-34" value="" style="endArrow=classic;html=1;rounded=0;entryX=1;entryY=0;entryDx=0;entryDy=27.5;exitX=0;exitY=1;exitDx=0;exitDy=0;dashed=1;entryPerimeter=0;" edge="1" parent="1" source="Vy1e10dYT5zq_7maPLow-4" target="D9Z2wX8GmxAhrMVsmzYS-29">
          <mxGeometry width="50" height="50" relative="1" as="geometry">
            <mxPoint x="530" y="425" as="sourcePoint" />
            <mxPoint x="360" y="565" as="targetPoint" />
          </mxGeometry>
        </mxCell>
        <mxCell id="D9Z2wX8GmxAhrMVsmzYS-35" value="DB Access" style="edgeLabel;html=1;align=center;verticalAlign=middle;resizable=0;points=[];" vertex="1" connectable="0" parent="D9Z2wX8GmxAhrMVsmzYS-34">
          <mxGeometry x="0.4818" relative="1" as="geometry">
            <mxPoint as="offset" />
          </mxGeometry>
        </mxCell>
        <mxCell id="D9Z2wX8GmxAhrMVsmzYS-37" value="" style="endArrow=classic;html=1;rounded=0;entryX=1;entryY=0.5;entryDx=0;entryDy=0;exitX=0;exitY=1;exitDx=0;exitDy=0;dashed=1;entryPerimeter=0;" edge="1" parent="1" source="Vy1e10dYT5zq_7maPLow-5" target="D9Z2wX8GmxAhrMVsmzYS-29">
          <mxGeometry width="50" height="50" relative="1" as="geometry">
            <mxPoint x="530" y="440" as="sourcePoint" />
            <mxPoint x="330" y="688" as="targetPoint" />
          </mxGeometry>
        </mxCell>
        <mxCell id="D9Z2wX8GmxAhrMVsmzYS-38" value="DB Access" style="edgeLabel;html=1;align=center;verticalAlign=middle;resizable=0;points=[];" vertex="1" connectable="0" parent="D9Z2wX8GmxAhrMVsmzYS-37">
          <mxGeometry x="0.4818" relative="1" as="geometry">
            <mxPoint x="68" y="-48" as="offset" />
          </mxGeometry>
        </mxCell>
        <mxCell id="D9Z2wX8GmxAhrMVsmzYS-46" value="&lt;b&gt;Hangfire Agent Host&lt;/b&gt;" style="text;html=1;align=center;verticalAlign=middle;whiteSpace=wrap;rounded=0;" vertex="1" parent="1">
          <mxGeometry x="650" y="525" width="150" height="30" as="geometry" />
        </mxCell>
        <mxCell id="D9Z2wX8GmxAhrMVsmzYS-47" value="&lt;b&gt;Hangfire Agent Host&lt;/b&gt;" style="text;html=1;align=center;verticalAlign=middle;whiteSpace=wrap;rounded=0;" vertex="1" parent="1">
          <mxGeometry x="650" y="415" width="150" height="30" as="geometry" />
        </mxCell>
        <mxCell id="D9Z2wX8GmxAhrMVsmzYS-49" value="&lt;b&gt;Web API Host&lt;/b&gt;" style="text;html=1;align=center;verticalAlign=middle;whiteSpace=wrap;rounded=0;" vertex="1" parent="1">
          <mxGeometry x="310" y="280" width="150" height="30" as="geometry" />
        </mxCell>
      </root>
    </mxGraphModel>
  </diagram>
</mxfile>
